<svg width="190" height="106" viewBox="0 0 190 106" fill="none" xmlns="http://www.w3.org/2000/svg">
<path fill-rule="evenodd" clip-rule="evenodd" d="M52.003 39.7645H53.7814V56.8465H52.003V39.7645V39.7645ZM64.6702 67.7958H68.7782V72.6415H67.7382V68.6148H65.7206V72.6415H64.6702V67.7958ZM69.8494 72.6415V67.7958H71.5238C72.1582 67.7958 72.5742 67.8153 72.7718 67.864C73.063 67.942 73.3125 68.098 73.5101 68.3418C73.7077 68.5855 73.8118 68.8975 73.8118 69.2875C73.8118 69.58 73.7494 69.8335 73.635 70.0383C73.5206 70.243 73.375 70.399 73.1982 70.516C73.0214 70.633 72.8446 70.711 72.6574 70.7403C72.4078 70.789 72.0541 70.8183 71.5757 70.8183H70.8997V72.6415H69.8494V72.6415ZM70.8997 68.6148V69.9993H71.4718C71.8774 69.9993 72.1478 69.97 72.2934 69.9213C72.4286 69.8628 72.5325 69.7848 72.6157 69.6775C72.6989 69.5703 72.7301 69.4435 72.7301 69.2973C72.7301 69.1218 72.6781 68.9755 72.5741 68.8585C72.4597 68.7513 72.3142 68.6733 72.1478 68.644C72.023 68.6245 71.7734 68.6148 71.399 68.6148H70.8997ZM74.3525 70.243C74.3525 69.7555 74.4358 69.3363 74.5918 69.0048C74.7166 68.7513 74.8726 68.527 75.0806 68.332C75.2782 68.137 75.507 67.9908 75.7462 67.8933C76.0686 67.7665 76.443 67.708 76.859 67.708C77.6286 67.708 78.2318 67.9225 78.6894 68.371C79.1574 68.8195 79.3757 69.4338 79.3757 70.2235C79.3757 71.0133 79.1573 71.6275 78.6997 72.0663C78.2421 72.5148 77.6389 72.7293 76.8797 72.7293C76.1101 72.7293 75.4966 72.5148 75.039 72.0663C74.5814 71.6275 74.3525 71.023 74.3525 70.243V70.243ZM75.4341 70.2138C75.4341 70.7695 75.5693 71.179 75.8397 71.4618C76.1101 71.7543 76.4534 71.8908 76.8694 71.8908C77.2958 71.8908 77.639 71.7543 77.899 71.4715C78.1694 71.1888 78.3046 70.7695 78.3046 70.204C78.3046 69.6483 78.1694 69.229 77.9094 68.956C77.6494 68.683 77.3062 68.5465 76.8694 68.5465C76.443 68.5465 76.0998 68.683 75.8294 68.9658C75.5694 69.2388 75.4341 69.658 75.4341 70.2138ZM80.2078 67.7958H81.1854V71.023L83.2862 67.7958H84.3262V72.6415H83.3485V69.463L81.2478 72.6415H80.2078V67.7958ZM86.1254 69.112L85.1062 68.8878C85.3246 68.098 85.9486 67.708 86.9782 67.708C87.5814 67.708 88.039 67.8348 88.351 68.0785C88.663 68.332 88.819 68.6245 88.819 68.9658C88.819 69.1998 88.7462 69.4045 88.6006 69.5898C88.4654 69.775 88.247 69.9408 87.9662 70.087C88.3094 70.1943 88.5694 70.3503 88.7358 70.555C88.9126 70.7598 88.9958 71.0035 88.9958 71.3058C88.9958 71.725 88.8294 72.076 88.4966 72.3393C88.1638 72.6025 87.6646 72.7293 86.999 72.7293C86.4582 72.7293 86.0317 72.6513 85.7197 72.4758C85.4077 72.31 85.1685 71.9883 85.0125 71.53L85.9694 71.2375C86.063 71.53 86.1982 71.7153 86.3646 71.803C86.531 71.8908 86.7286 71.9298 86.9678 71.9298C87.3006 71.9298 87.5398 71.8615 87.6958 71.7348C87.8414 71.5983 87.9246 71.4423 87.9246 71.2668C87.9246 71.0718 87.831 70.906 87.6646 70.789C87.4878 70.6623 87.2382 70.6038 86.895 70.6038H86.6558V69.8725H86.7702C87.0926 69.8725 87.3421 69.8043 87.5085 69.6678C87.6749 69.541 87.7582 69.3558 87.7582 69.1315C87.7582 68.956 87.6958 68.8098 87.5502 68.683C87.415 68.566 87.2174 68.5075 86.9678 68.5075C86.531 68.5075 86.2502 68.7123 86.1254 69.112V69.112ZM89.9213 67.7958H91.991C92.3966 67.7958 92.6982 67.8055 92.9062 67.8445C93.1038 67.8738 93.2805 67.942 93.4469 68.0395C93.6029 68.1468 93.7382 68.2735 93.8422 68.449C93.9462 68.6148 93.9982 68.8 93.9982 69.0145C93.9982 69.2388 93.9358 69.4435 93.8006 69.6385C93.6758 69.8238 93.499 69.97 93.2806 70.0578C93.5926 70.1455 93.8318 70.2918 93.9982 70.4965C94.1646 70.711 94.2582 70.9548 94.2582 71.2375C94.2582 71.452 94.1958 71.6665 94.0918 71.881C93.9774 72.0858 93.8318 72.2515 93.6446 72.3783C93.447 72.505 93.2182 72.583 92.9374 72.6123C92.771 72.6318 92.3446 72.6415 91.679 72.6415H89.9213V67.7958V67.7958ZM90.9613 68.5953V69.7165H91.6478C92.0534 69.7165 92.3133 69.7165 92.4069 69.697C92.5837 69.6775 92.7294 69.619 92.8334 69.5313C92.927 69.4338 92.979 69.307 92.979 69.151C92.979 69.0048 92.9374 68.878 92.8438 68.7903C92.7606 68.6928 92.6254 68.6343 92.459 68.6148C92.355 68.605 92.0534 68.5953 91.5646 68.5953H90.9613ZM90.9613 70.5258V71.8225H91.939C92.3134 71.8225 92.5526 71.8128 92.6462 71.7933C92.8022 71.764 92.9374 71.7055 93.031 71.5983C93.1246 71.5008 93.1766 71.3643 93.1766 71.1888C93.1766 71.0425 93.135 70.9158 93.0622 70.8183C92.9894 70.711 92.8749 70.6428 92.7397 70.594C92.5941 70.5453 92.2821 70.5258 91.8141 70.5258H90.9613V70.5258ZM94.7366 70.243C94.7366 69.7555 94.8198 69.3363 94.9758 69.0048C95.0902 68.7513 95.2566 68.527 95.4646 68.332C95.6622 68.137 95.8806 67.9908 96.1302 67.8933C96.4526 67.7665 96.827 67.708 97.243 67.708C98.0126 67.708 98.6158 67.9225 99.0734 68.371C99.531 68.8195 99.7597 69.4338 99.7597 70.2235C99.7597 71.0133 99.531 71.6275 99.0838 72.0663C98.6262 72.5148 98.023 72.7293 97.2638 72.7293C96.4838 72.7293 95.8806 72.5148 95.423 72.0663C94.9654 71.6275 94.7366 71.023 94.7366 70.243V70.243ZM95.8182 70.2138C95.8182 70.7695 95.9534 71.179 96.2238 71.4618C96.4942 71.7543 96.8374 71.8908 97.2534 71.8908C97.6694 71.8908 98.0126 71.7543 98.283 71.4715C98.5534 71.1888 98.6886 70.7695 98.6886 70.204C98.6886 69.6483 98.5534 69.229 98.2934 68.956C98.0334 68.683 97.6902 68.5465 97.2534 68.5465C96.827 68.5465 96.4734 68.683 96.2134 68.9658C95.9534 69.2388 95.8182 69.658 95.8182 70.2138ZM100.904 67.7958H104.471V71.8225H104.929V73.7043H104.055V72.6415H100.81V73.7043H99.9366V71.8225H100.373C100.592 71.413 100.727 70.9255 100.8 70.3795C100.873 69.8335 100.904 69.1413 100.904 68.3028V67.7958V67.7958ZM101.902 68.6148C101.902 70.0773 101.757 71.1498 101.465 71.8225H103.421V68.6148H101.902ZM108.943 70.8573L109.952 71.1498C109.796 71.6763 109.536 72.076 109.172 72.3393C108.818 72.5928 108.361 72.7293 107.799 72.7293C107.113 72.7293 106.551 72.505 106.104 72.0663C105.667 71.6275 105.438 71.023 105.438 70.2625C105.438 69.4533 105.667 68.8195 106.114 68.371C106.551 67.9323 107.144 67.708 107.861 67.708C108.496 67.708 109.016 67.8835 109.411 68.2345C109.64 68.4393 109.817 68.7415 109.941 69.1315L108.901 69.3558C108.839 69.1023 108.714 68.9073 108.517 68.761C108.329 68.6148 108.09 68.5465 107.809 68.5465C107.425 68.5465 107.113 68.6733 106.873 68.9365C106.634 69.19 106.52 69.6093 106.52 70.1845C106.52 70.7988 106.634 71.2375 106.873 71.491C107.113 71.7543 107.414 71.881 107.789 71.881C108.069 71.881 108.309 71.803 108.506 71.6373C108.704 71.4715 108.849 71.2083 108.943 70.8573V70.8573ZM111.834 72.6415V68.6148H110.305V67.7958H114.403V68.6148H112.885V72.6415H111.834ZM115.079 67.7958H117.149C117.565 67.7958 117.866 67.8055 118.064 67.8445C118.272 67.8738 118.449 67.942 118.605 68.0395C118.771 68.1468 118.906 68.2735 119.01 68.449C119.114 68.6148 119.166 68.8 119.166 69.0145C119.166 69.2388 119.104 69.4435 118.969 69.6385C118.844 69.8238 118.667 69.97 118.438 70.0578C118.761 70.1455 119 70.2918 119.166 70.4965C119.333 70.711 119.416 70.9548 119.416 71.2375C119.416 71.452 119.364 71.6665 119.26 71.881C119.145 72.0858 119 72.2515 118.802 72.3783C118.615 72.505 118.386 72.583 118.105 72.6123C117.929 72.6318 117.513 72.6415 116.847 72.6415H115.079V67.7958V67.7958ZM116.129 68.5953V69.7165H116.816C117.221 69.7165 117.471 69.7165 117.575 69.697C117.752 69.6775 117.887 69.619 117.991 69.5313C118.095 69.4338 118.147 69.307 118.147 69.151C118.147 69.0048 118.105 68.878 118.012 68.7903C117.929 68.6928 117.793 68.6343 117.627 68.6148C117.523 68.605 117.221 68.5953 116.733 68.5953H116.129V68.5953ZM116.129 70.5258V71.8225H117.097C117.471 71.8225 117.71 71.8128 117.814 71.7933C117.97 71.764 118.095 71.7055 118.199 71.5983C118.293 71.5008 118.345 71.3643 118.345 71.1888C118.345 71.0425 118.303 70.9158 118.23 70.8183C118.157 70.711 118.043 70.6428 117.908 70.594C117.762 70.5453 117.45 70.5258 116.972 70.5258H116.129ZM120.3 72.6415V67.7958H124.127V68.6148H121.35V69.6873H123.94V70.5063H121.35V71.8225H124.231V72.6415H120.3V72.6415ZM125.125 72.6415V67.7958H126.165V69.7068H128.204V67.7958H129.254V72.6415H128.204V70.5258H126.165V72.6415H125.125ZM130.336 72.6415V67.7958H131.386V69.7068H133.425V67.7958H134.475V72.6415H133.425V70.5258H131.386V72.6415H130.336ZM140.216 72.6415H139.093L138.645 71.5398H136.565L136.139 72.6415H135.026L137.044 67.7958H138.146L140.216 72.6415ZM138.302 70.7208L137.585 68.9268L136.888 70.7208H138.302V70.7208ZM143.866 72.6415V70.6135H143.658C143.325 70.6135 143.097 70.6623 142.961 70.7598C142.826 70.8475 142.587 71.1205 142.265 71.5885L141.516 72.6415H140.268L140.892 71.6958C141.141 71.3253 141.339 71.062 141.485 70.906C141.641 70.7598 141.828 70.6233 142.046 70.5063C141.568 70.4283 141.214 70.2723 141.006 70.0285C140.788 69.7848 140.684 69.4923 140.684 69.151C140.684 68.8585 140.767 68.5953 140.923 68.371C141.079 68.1468 141.287 67.9908 141.547 67.9128C141.807 67.8348 142.202 67.7958 142.722 67.7958H144.917V72.6415H143.866V72.6415ZM143.866 68.6148H143.055C142.639 68.6148 142.369 68.6245 142.233 68.6343C142.109 68.6538 141.994 68.7123 141.901 68.8195C141.807 68.917 141.765 69.0535 141.765 69.2193C141.765 69.385 141.807 69.5215 141.901 69.619C141.984 69.7263 142.098 69.7848 142.244 69.814C142.379 69.8335 142.67 69.8433 143.097 69.8433H143.866V68.6148V68.6148ZM147.995 67.7958H149.045V69.8628C149.274 69.8335 149.43 69.7848 149.513 69.6873C149.597 69.5995 149.721 69.346 149.898 68.9365C150.106 68.41 150.325 68.0785 150.543 67.9518C150.761 67.825 151.115 67.7665 151.593 67.7665C151.614 67.7665 151.666 67.7665 151.739 67.7568V68.488L151.593 68.4783C151.385 68.4783 151.229 68.5075 151.125 68.5563C151.032 68.605 150.949 68.683 150.886 68.7805C150.824 68.8878 150.73 69.0925 150.616 69.4045C150.553 69.58 150.481 69.7165 150.408 69.8335C150.335 69.9408 150.2 70.048 150.013 70.1455C150.252 70.2138 150.439 70.3308 150.595 70.5258C150.741 70.711 150.907 70.9743 151.094 71.3155L151.791 72.6415H150.564L149.95 71.3935C149.94 71.374 149.919 71.3448 149.888 71.296C149.877 71.2765 149.836 71.1985 149.753 71.062C149.628 70.828 149.513 70.672 149.43 70.6135C149.347 70.555 149.212 70.5258 149.045 70.5258V72.6415H147.995V67.7958ZM152.176 70.243C152.176 69.7555 152.249 69.3363 152.415 69.0048C152.529 68.7513 152.685 68.527 152.893 68.332C153.091 68.137 153.32 67.9908 153.559 67.8933C153.881 67.7665 154.256 67.708 154.672 67.708C155.441 67.708 156.055 67.9225 156.513 68.371C156.97 68.8195 157.199 69.4338 157.199 70.2235C157.199 71.0133 156.97 71.6275 156.513 72.0663C156.055 72.5148 155.452 72.7293 154.693 72.7293C153.923 72.7293 153.309 72.5148 152.852 72.0663C152.405 71.6275 152.176 71.023 152.176 70.243V70.243ZM153.247 70.2138C153.247 70.7695 153.382 71.179 153.653 71.4618C153.923 71.7543 154.277 71.8908 154.693 71.8908C155.109 71.8908 155.452 71.7543 155.722 71.4715C155.982 71.1888 156.117 70.7695 156.117 70.204C156.117 69.6483 155.993 69.229 155.733 68.956C155.462 68.683 155.119 68.5465 154.693 68.5465C154.256 68.5465 153.913 68.683 153.642 68.9658C153.382 69.2388 153.247 69.658 153.247 70.2138ZM158 72.6415V67.7958H159.57L160.496 71.101L161.411 67.7958H162.981V72.6415H162.014V68.8293L160.995 72.6415H159.986L158.967 68.8293V72.6415H158V72.6415ZM164.042 67.7958H168.161V72.6415H167.11V68.6148H165.093V72.6415H164.042V67.7958V67.7958ZM173.891 72.6415H172.757L172.31 71.5398H170.241L169.804 72.6415H168.701L170.709 67.7958H171.811L173.891 72.6415ZM171.967 70.7208L171.249 68.9268L170.553 70.7208H171.967V70.7208ZM174.442 72.6415V67.7958H175.493V69.7068H177.531V67.7958H178.581V72.6415H177.531V70.5258H175.493V72.6415H174.442ZM179.673 67.7958H180.651V71.023L182.752 67.7958H183.792V72.6415H182.814V69.463L180.713 72.6415H179.673V67.7958ZM187.952 72.6415V70.6135H187.733C187.401 70.6135 187.172 70.6623 187.037 70.7598C186.901 70.8475 186.673 71.1205 186.34 71.5885L185.591 72.6415H184.343L184.977 71.6958C185.227 71.3253 185.425 71.062 185.57 70.906C185.716 70.7598 185.903 70.6233 186.121 70.5063C185.643 70.4283 185.3 70.2723 185.081 70.0285C184.873 69.7848 184.759 69.4923 184.759 69.151C184.759 68.8585 184.842 68.5953 184.998 68.371C185.165 68.1468 185.373 67.9908 185.633 67.9128C185.893 67.8348 186.277 67.7958 186.797 67.7958H189.002V72.6415H187.952V72.6415ZM187.952 68.6148H187.13C186.725 68.6148 186.444 68.6245 186.319 68.6343C186.184 68.6538 186.069 68.7123 185.976 68.8195C185.882 68.917 185.841 69.0535 185.841 69.2193C185.841 69.385 185.882 69.5215 185.976 69.619C186.069 69.7263 186.184 69.7848 186.319 69.814C186.465 69.8335 186.745 69.8433 187.172 69.8433H187.952V68.6148V68.6148ZM55.5494 52.576C59.231 52.576 62.2054 49.7095 62.2054 46.1703C62.2054 42.631 59.231 39.7645 55.5494 39.7645V41.4708C58.243 41.4708 60.427 43.5768 60.427 46.1703C60.427 48.7638 58.243 50.8698 55.5494 50.8698V52.576V52.576ZM74.155 51.0355C74.155 51.1233 74.155 51.211 74.155 51.2988C74.155 54.3603 71.5758 56.8465 68.3934 56.8465C65.211 56.8465 62.6318 54.3603 62.6318 51.2988C62.6318 48.2275 65.211 45.7413 68.3934 45.7413C70.8374 45.7413 72.9277 47.2135 73.7701 49.2805L66.8854 53.1123L66.0014 51.6303L71.3157 48.676C70.0781 47.389 68.0398 47.0575 66.407 47.9643C64.4934 49.027 63.8382 51.3768 64.9406 53.2195C66.043 55.0623 68.4869 55.6863 70.3901 54.6235C71.4197 54.058 72.0854 53.1025 72.3038 52.069L74.155 51.0355V51.0355ZM135.276 39.7645H137.137L141.973 56.8465H140.101L135.276 39.7645ZM135.276 46.375L134.34 43.0698L130.45 56.8465H132.312L135.276 46.375V46.375ZM99.0214 55.306C97.9814 56.2615 96.5774 56.8465 95.0278 56.8465C91.8454 56.8465 89.2662 54.3603 89.2662 51.2988V45.7413H91.0446V51.2988C91.0446 53.4243 92.823 55.1403 95.0278 55.1403C97.2326 55.1403 99.0214 53.4243 99.0214 51.2988V45.7413H100.789V56.827H99.0214V55.306V55.306ZM153.944 58.5723H152.165C152.165 62.5698 155.545 65.8165 159.705 65.8165C163.865 65.8165 167.245 62.5698 167.245 58.5625C167.245 55.5205 165.311 52.927 162.565 51.835C163.262 51.1428 163.699 50.2068 163.699 49.1635C163.699 47.038 161.91 45.3123 159.705 45.3123C157.501 45.3123 155.712 47.038 155.712 49.1635H157.49C157.49 47.9838 158.478 47.0283 159.705 47.0283C160.933 47.0283 161.921 47.9838 161.921 49.1635C161.921 50.3433 160.933 51.2988 159.705 51.2988V53.005C162.888 53.005 165.467 55.4913 165.467 58.5625C165.467 61.624 162.888 64.1103 159.705 64.1103C156.523 64.1103 153.944 61.624 153.944 58.5723V58.5723ZM108.849 56.788C111.605 56.3785 113.717 54.0775 113.717 51.2988C113.717 48.52 111.605 46.219 108.849 45.8095V47.545C110.617 47.935 111.949 49.4658 111.949 51.2988C111.949 53.1318 110.617 54.6625 108.849 55.0525V56.788V56.788ZM107.071 56.788C104.315 56.3785 102.193 54.0775 102.193 51.2988C102.193 48.52 104.315 46.219 107.071 45.8095V47.545C105.293 47.935 103.972 49.4658 103.972 51.2988C103.972 53.1318 105.293 54.6625 107.071 55.0525V56.788ZM125.24 50.4408V45.7413H127.008V56.8465H125.24V52.147H117.253V56.8465H115.485V45.7413H117.253V50.4408H125.24ZM150.366 54.5358C149.732 54.9453 148.973 55.189 148.151 55.189C145.946 55.189 144.168 53.4633 144.168 51.3378C144.168 49.222 145.946 47.4963 148.151 47.4963C150.356 47.4963 152.145 49.222 152.145 51.3378V56.8758L153.913 56.8465V51.3378C153.913 48.2763 151.333 45.79 148.151 45.79C144.969 45.79 142.389 48.2763 142.389 51.3378C142.389 54.409 144.969 56.8953 148.151 56.8953C148.941 56.8953 149.69 56.7393 150.366 56.4663V54.5358ZM178.945 51.0355C178.945 51.1233 178.945 51.211 178.945 51.2988C178.945 54.3603 176.366 56.8465 173.184 56.8465C170.001 56.8465 167.422 54.3603 167.422 51.2988C167.422 48.2275 170.001 45.7413 173.184 45.7413C175.628 45.7413 177.718 47.2135 178.561 49.2805L171.676 53.1123L170.792 51.6303L176.106 48.676C174.869 47.389 172.83 47.0575 171.187 47.9643C169.284 49.027 168.629 51.3768 169.731 53.2195C170.833 55.0623 173.277 55.6863 175.181 54.6235C176.21 54.058 176.876 53.1025 177.094 52.069L178.945 51.0355V51.0355ZM180.797 45.7413H182.575V62.833H180.797V45.7413V45.7413ZM184.093 56.7198C186.86 56.3103 188.971 54.0093 188.971 51.2305C188.971 48.4518 186.86 46.1508 184.093 45.7413V47.4865C185.872 47.8668 187.203 49.3975 187.203 51.2305C187.203 53.0635 185.872 54.5943 184.093 54.9843V56.7198V56.7198ZM84.4302 48.6663C83.1822 47.3695 81.1438 47.038 79.5006 47.9448C78.7726 48.3543 78.3981 48.8418 77.8885 49.6315L76.6406 50.3238C76.183 50.548 75.7046 50.587 75.9334 49.8265C76.599 47.4573 78.8454 45.7218 81.4974 45.7218C83.4318 45.7218 84.7526 46.3848 85.8654 47.6425C86.3542 48.208 86.2502 49.612 85.491 50.0313L78.5646 53.8825C79.8022 55.1793 81.8509 55.5205 83.4941 54.604C84.2221 54.2043 84.8046 53.5315 85.1062 52.927L86.3646 52.225C86.8222 52.0105 87.2901 51.9715 87.0613 52.732C86.3957 55.0915 84.1598 56.827 81.4974 56.827C79.7502 56.827 78.1798 56.0763 77.1294 54.8965C76.651 54.3505 76.7549 52.9465 77.5141 52.5273L84.4302 48.6663V48.6663ZM62.819 72.6025C50.4534 72.6025 40.4278 62.9403 40.4278 51.0258C40.4278 39.1015 50.4534 29.4393 62.819 29.4393V31.9353C51.8782 31.9353 43.0174 40.4763 43.0174 51.0258C43.0174 61.5655 51.8782 70.1163 62.819 70.1163V72.6025ZM26.7829 51.796C26.5021 52.264 25.9822 52.576 25.379 52.576C24.495 52.576 23.767 51.8838 23.767 51.0258C23.767 50.1678 24.495 49.4658 25.379 49.4658C25.9822 49.4658 26.5021 49.7778 26.7829 50.2458H37.8486V51.796H26.7829V51.796ZM46.3454 96.5388C45.8046 96.646 45.3262 97.0263 45.139 97.5723C44.8582 98.3913 45.3158 99.2688 46.1686 99.5418C47.011 99.805 47.9262 99.3663 48.207 98.5473C48.3942 98.0013 48.2486 97.426 47.8742 97.0263L55.747 74.1235L54.2078 73.6263L46.3454 96.5388V96.5388ZM26.315 69.2778C26.2838 69.814 25.951 70.3113 25.4206 70.5648C24.6198 70.945 23.6526 70.633 23.2574 69.8628C22.8622 69.0925 23.195 68.1565 23.9854 67.7763C24.5262 67.5228 25.1398 67.5813 25.5974 67.8835L40.1054 60.9805L40.823 62.3748L26.315 69.2778ZM26.419 3.10452C25.8678 3.16302 25.2958 2.92902 24.9526 2.46102C24.4326 1.75902 24.6094 0.793775 25.327 0.286775C26.055 -0.210475 27.0638 -0.0447252 27.5838 0.657275C27.927 1.12527 27.9686 1.72002 27.7398 2.20752L48.935 30.9018L47.6246 31.7988L26.419 3.10452ZM2.72775 24.4278C2.27015 24.73 1.65655 24.7983 1.11575 24.5545C0.314949 24.184 -0.0282506 23.2578 0.346149 22.4778C0.730949 21.7075 1.69815 21.376 2.49895 21.7368C3.03975 21.9903 3.37255 22.4875 3.41415 23.0238L40.563 39.9888L39.8766 41.3928L2.72775 24.4278V24.4278ZM25.3374 103.413C25.5766 103.9 25.535 104.495 25.1918 104.963C24.6718 105.665 23.663 105.831 22.935 105.333C22.207 104.836 22.0406 103.861 22.5606 103.159C22.9038 102.691 23.4654 102.467 24.027 102.516L47.8014 70.204L49.1222 71.101L25.3374 103.413ZM15.2181 88.5243C15.3013 89.0605 15.0934 89.6163 14.6254 89.977C13.9286 90.5133 12.9093 90.3963 12.3581 89.7235C11.8069 89.0508 11.9213 88.0758 12.6181 87.5395C13.0861 87.1788 13.6998 87.1105 14.2198 87.3055L42.8302 65.3973L43.839 66.616L15.2181 88.5243ZM30.5998 26.2413C30.0798 26.4265 29.4662 26.3485 29.0086 25.978C28.3222 25.432 28.2286 24.4473 28.8006 23.7843C29.3726 23.1213 30.3814 23.0335 31.0678 23.5795C31.5358 23.95 31.723 24.5155 31.6293 25.042L44.0782 35.0065L43.0486 36.196L30.5998 26.2413V26.2413ZM16.175 41.9973C15.8006 42.397 15.2182 42.592 14.6358 42.4653C13.7622 42.2898 13.2109 41.461 13.3981 40.6225C13.5957 39.7743 14.4486 39.2478 15.3222 39.433C15.9046 39.55 16.3414 39.9693 16.5182 40.4763L38.5766 45.1173L38.2334 46.6383L16.175 41.9973ZM49.8918 18.5973C49.3406 18.4998 48.8622 18.1293 48.6542 17.593C48.3526 16.7838 48.7894 15.8868 49.6318 15.5943C50.4638 15.3115 51.3894 15.7308 51.691 16.54C51.899 17.0763 51.7638 17.6613 51.4102 18.0708L55.1438 28.1035L53.6254 28.63L49.8918 18.5973V18.5973ZM3.16455 65.4655C2.99815 65.9725 2.57175 66.3918 1.98935 66.5283C1.11575 66.7233 0.252549 66.2065 0.0445494 65.3778C-0.163451 64.5393 0.377349 63.7008 1.24055 63.5058C1.82295 63.3693 2.40535 63.5545 2.79015 63.9445L38.3582 55.8228L38.7222 57.334L3.16455 65.4655V65.4655Z" fill="#FFCC66"/>
</svg>
